<?xml version="1.0" encoding="iso-8859-1"?>
<!-- Generator: Adobe Illustrator 19.0.0, SVG Export Plug-In . SVG Version: 6.00 Build 0)  -->
<svg version="1.1" id="Capa_1" xmlns="http://www.w3.org/2000/svg" xmlns:xlink="http://www.w3.org/1999/xlink" x="0px" y="0px"
	 viewBox="0 0 512 512" style="enable-background:new 0 0 512 512;" xml:space="preserve">
<path style="fill:#355382;" d="M68.5,241c-24.814,0-45-20.186-45-45s20.186-45,45-45s45,20.186,45,45
	c0,20.49-11.442,27.296-22.544,22.456C95.848,229.679,88.859,241,68.5,241z"/>
<path style="fill:#4AB8F7;" d="M512,436v60.028c0,8.821-7.151,15.972-15.972,15.972H256v-76c0-49.501,47.999-90,98.1-90h60
	C463.001,346,512,386.499,512,436z"/>
<path style="fill:#FF73A5;" d="M256,436v76H15.972C7.151,512,0,504.849,0,496.028V436c0-50.345,49.555-90,99.1-90h60
	C207.486,346,256,385.695,256,436z"/>
<path style="fill:#FF5F96;" d="M256,436v76H129.1V346h29.4C207.486,346,256,385.695,256,436z"/>
<path style="fill:#F2D1A5;" d="M203.9,256v30c0,41.4-33.4,75-74.8,75s-75-33.6-75-75v-10.201L77.8,247.3l51.3-19.801l38.099-15.3
	l27.001,7.5C199.9,229.6,203.9,242.199,203.9,256z"/>
<path style="fill:#F2BB88;" d="M203.9,256v30c0,41.4-33.4,75-74.8,75V227.5l38.099-15.3l27.001,7.5
	C199.9,229.6,203.9,242.199,203.9,256z"/>
<path style="fill:#FF3F2E;" d="M293.2,0c-16.5,0-28.799,7.5-37.2,17.1C247.599,7.5,235.3,0,218.8,0c-29.399,0-52.2,24.3-52.2,55.499
	c0,32.401,25.199,54.001,60.3,83.401c5.999,5.099,12.599,10.499,19.199,16.5c2.701,2.4,6.301,3.6,9.901,3.6s7.2-1.199,9.901-3.6
	c6.599-6,13.2-11.4,19.199-16.5c27.301-23.101,60.3-47.999,60.3-83.401C345.399,24.3,322.599,0,293.2,0z"/>
<path style="fill:#3F6199;" d="M194.2,219.699l-65.1,26.1l-75,30V256c0-41.4,33.6-75,75-75C157.3,181,181.3,196.601,194.2,219.699z"
	/>
<path style="fill:#CF0404;" d="M345.399,55.499c0,35.402-32.999,60.3-60.3,83.401c-5.999,5.099-12.599,10.499-19.199,16.5
	c-2.7,2.4-6.3,3.6-9.9,3.6V17.1C264.401,7.5,276.7,0,293.2,0C322.599,0,345.399,24.3,345.399,55.499z"/>
<path style="fill:#355382;" d="M194.2,219.699l-65.1,26.1V181C157.3,181,181.3,196.601,194.2,219.699z"/>
<path style="fill:#1EA1E3;" d="M512,436v60.028c0,8.821-7.151,15.972-15.972,15.972H384.1V346h29.4C463.001,346,512,386.499,512,436
	z"/>
<path style="fill:#F2D1A5;" d="M424.301,241H324.7c-9.001,0-15.6,6.599-15.6,15v30c0,41.4,33.6,75,75,75s74.8-33.6,74.8-75v-15
	L424.301,241z"/>
<path style="fill:#F2BB88;" d="M458.9,271v15c0,41.4-33.4,75-74.8,75V241h39.601L458.9,271z"/>
<path style="fill:#3F6199;" d="M458.9,256c0-41.4-33.4-75-74.8-75h-90.6c-8.401,0-15,6.599-15,15c0,41.4,35.2,75,75.6,75h105.4
	L458.9,256z"/>
<path style="fill:#355382;" d="M458.9,271h-74.8v-90c41.4,0,74.8,33.6,74.8,75L458.9,271L458.9,271z"/>
<g>
</g>
<g>
</g>
<g>
</g>
<g>
</g>
<g>
</g>
<g>
</g>
<g>
</g>
<g>
</g>
<g>
</g>
<g>
</g>
<g>
</g>
<g>
</g>
<g>
</g>
<g>
</g>
<g>
</g>
</svg>
