<svg height="512pt" viewBox="-103 0 512 512.00103" width="512pt" xmlns="http://www.w3.org/2000/svg"><path d="m0 0h306.480469v512h-306.480469zm0 0" fill="#cff9ff"/><path d="m153.238281 0h153.242188v512h-153.242188zm0 0" fill="#a7ddfa"/><path d="m137.96875 235.273438h30.542969v35.503906h-30.542969zm0 0" fill="#ffcdbe"/><path d="m162.730469 265.617188h-18.980469c-35.769531 0-64.867188 31.53125-64.867188 70.285156v83.507812h148.714844v-83.507812c0-38.753906-29.097656-70.285156-64.867187-70.285156zm0 0" fill="#ffa8ad"/><path d="m306.480469 512h-306.480469v-512h306.480469zm-275.933594-30.546875h245.386719v-450.90625h-245.386719zm0 0" fill="#64e1dc"/><path d="m0 398.078125h306.480469v113.921875h-306.480469zm0 0" fill="#b4f5f0"/><path d="m210.390625 190.570312c0 31.5625-25.585937 57.152344-57.148437 57.152344-31.566407 0-57.152344-25.589844-57.152344-57.152344s25.585937-57.148437 57.152344-57.148437c31.5625 0 57.148437 25.585937 57.148437 57.148437zm0 0" fill="#ffdecf"/><path d="m138.984375 439.765625h28.511719v30.546875h-28.511719zm0 0" fill="#64e1dc"/><path d="m209.175781 178.789062h-111.875c5.441407-25.910156 28.421875-45.367187 55.9375-45.367187 27.527344 0 50.507813 19.457031 55.9375 45.367187zm0 0" fill="#fcf2b6"/><path d="m176.660156 80.554688h76.363282v30.546874h-76.363282zm0 0" fill="#64e1dc"/><path d="m132.332031 65.484375c-8.9375-8.9375-23.421875-8.9375-32.355469 0l-2.832031 2.828125-2.980469-2.980469c-8.933593-8.933593-23.417968-8.933593-32.355468 0-8.933594 8.933594-8.933594 23.417969 0 32.355469l35.335937 35.335938h.003907l35.183593-35.183594c8.933594-8.9375 8.933594-23.421875 0-32.355469zm0 0" fill="#ffa8ad"/><path d="m153.238281 0v30.546875h122.695313v450.90625h-122.695313v30.546875h153.242188v-512zm0 0" fill="#1cadb5"/><path d="m153.238281 235.273438h15.273438v35.503906h-15.273438zm0 0" fill="#f9b9aa"/><path d="m153.242188 133.421875h-.003907v114.300781h.003907c31.5625 0 57.148437-25.589844 57.148437-57.152344s-25.585937-57.148437-57.148437-57.148437zm0 0" fill="#ffcdbe"/><path d="m153.238281 178.789062h55.9375c-5.425781-25.910156-28.410156-45.367187-55.9375-45.367187zm0 0" fill="#ffbd6e"/><path d="m162.730469 265.617188h-9.492188v153.792968h74.359375v-83.507812c0-38.753906-29.097656-70.285156-64.867187-70.285156zm0 0" fill="#ff808c"/><path d="m153.238281 398.078125h153.242188v113.921875h-153.242188zm0 0" fill="#64e1dc"/><path d="m153.238281 439.765625h14.257813v30.546875h-14.257813zm0 0" fill="#1cadb5"/><path d="m132.328125 65.484375c-8.933594-8.9375-23.417969-8.9375-32.355469 0l-2.828125 2.828125-.074219-.074219v64.714844l.074219.070313h.003907l35.183593-35.183594c8.933594-8.9375 8.933594-23.421875-.003906-32.355469zm0 0" fill="#ff808c"/><path d="m214.839844 80.554688h38.183594v30.546874h-38.183594zm0 0" fill="#1cadb5"/></svg>